<?xml version="1.0" standalone="no"?>
<!DOCTYPE svg PUBLIC "-//W3C//DTD SVG 20010904//EN"
 "http://www.w3.org/TR/2001/REC-SVG-20010904/DTD/svg10.dtd">
<svg version="1.0" xmlns="http://www.w3.org/2000/svg"
 width="920.000000pt" height="1347.000000pt" viewBox="0 0 920.000000 1347.000000"
 preserveAspectRatio="xMidYMid meet">

<g transform="translate(0.000000,1347.000000) scale(0.100000,-0.100000)"
fill="#ffffff" stroke="none">
<path d="M5389 12731 c-14 -5 -310 -203 -458 -306 -32 -22 -143 -97 -247 -167
-172 -115 -263 -184 -569 -429 -182 -145 -195 -154 -195 -128 0 22 244 299
470 532 74 77 130 138 124 136 -6 -2 -57 -30 -115 -62 -99 -54 -259 -175 -414
-312 -38 -33 -92 -78 -120 -99 -27 -21 -75 -61 -105 -90 -30 -28 -109 -101
-175 -161 -187 -169 -280 -265 -600 -615 -43 -47 -110 -126 -150 -176 -41 -49
-104 -121 -141 -159 -56 -57 -65 -71 -56 -86 14 -22 42 -130 42 -160 0 -19
-13 -31 -63 -58 -34 -18 -98 -57 -142 -86 -44 -28 -85 -55 -91 -58 -7 -4 -48
51 -105 141 -51 81 -116 183 -145 227 -28 44 -68 113 -89 153 -46 88 -55 82
-55 -38 0 -96 24 -404 39 -501 5 -35 13 -100 17 -144 l6 -80 -37 -40 c-21 -22
-70 -74 -110 -116 -73 -77 -233 -273 -297 -364 -170 -238 -341 -584 -423 -855
-14 -47 -30 -98 -35 -115 -50 -164 -99 -541 -100 -770 0 -132 19 -361 40 -485
32 -189 37 -215 75 -355 24 -91 73 -230 110 -310 7 -16 25 -59 40 -95 73 -176
211 -417 323 -565 524 -688 1191 -1085 2022 -1201 175 -25 619 -26 775 -2 479
74 880 231 1275 499 170 115 271 198 410 338 283 285 464 554 650 966 38 83
122 324 116 332 -1 1 -161 4 -356 7 -195 3 -358 5 -362 6 -20 1 -4 22 40 51
69 47 229 142 292 174 30 15 93 50 140 77 116 67 115 67 285 158 83 45 161 90
175 100 l25 20 -95 0 c-52 1 -133 3 -180 5 -47 3 -212 6 -368 8 -155 2 -285 7
-289 10 -15 16 142 153 357 311 80 58 163 121 184 139 67 55 278 216 331 251
303 203 591 373 880 519 154 78 269 146 262 154 -3 2 -56 8 -118 13 -106 8
-206 13 -879 40 -135 5 -391 12 -570 15 -332 5 -490 12 -490 22 0 3 16 21 35
40 l35 34 163 -11 c170 -11 285 -24 352 -40 22 -5 56 -9 75 -9 34 0 33 1 -20
20 -30 11 -134 46 -230 78 -191 64 -230 80 -230 93 0 10 212 326 302 449 35
47 128 168 208 268 80 101 172 220 205 265 61 85 163 205 315 371 20 22 65 76
100 120 34 44 75 92 89 107 193 197 309 308 368 351 52 37 72 58 73 75 0 16
-6 22 -22 22 -26 0 -206 -31 -353 -61 -55 -11 -198 -35 -319 -55 -226 -35
-583 -104 -671 -129 -27 -7 -99 -23 -160 -35 -102 -19 -166 -35 -445 -110 -58
-15 -278 -73 -490 -128 -212 -56 -414 -110 -450 -121 -36 -12 -77 -21 -93 -21
-23 0 -27 3 -22 23 3 12 12 63 20 112 18 113 28 170 75 420 12 64 51 246 85
400 14 66 30 143 35 170 8 51 14 78 30 150 5 22 16 78 25 125 8 47 20 104 25
128 6 23 14 61 19 85 11 50 32 141 60 257 11 47 23 103 27 125 3 22 9 54 14
70 17 66 33 145 29 149 -2 2 -11 1 -20 -3z m-86 -169 c-2 -10 -27 -43 -55 -73
-27 -29 -71 -81 -96 -114 -26 -33 -52 -66 -59 -73 -6 -7 -22 -30 -34 -52 -13
-22 -26 -40 -31 -40 -4 0 -8 -4 -8 -9 0 -9 -81 -133 -112 -172 -7 -9 -26 -24
-43 -35 -16 -10 -67 -49 -111 -86 -45 -38 -85 -68 -89 -68 -4 0 -17 -11 -29
-23 -11 -13 -39 -37 -61 -53 -46 -34 -88 -69 -122 -104 -14 -14 -30 -24 -35
-22 -5 1 -7 -2 -3 -8 3 -5 -4 -14 -17 -19 -24 -9 -62 -44 -113 -105 -16 -19
-33 -35 -37 -36 -10 0 -78 -63 -78 -72 0 -4 -27 -35 -60 -69 -33 -34 -60 -66
-60 -71 0 -6 -89 -101 -199 -212 -188 -190 -340 -354 -459 -493 l-53 -62 -5
-123 c-3 -68 -7 -141 -10 -163 -3 -22 -5 -83 -4 -135 0 -77 -4 -103 -20 -135
-11 -22 -20 -44 -20 -50 1 -16 -94 -197 -98 -186 -2 5 -9 8 -16 5 -9 -3 -17
11 -25 43 -7 26 -17 56 -23 67 -6 11 -9 131 -8 310 1 278 3 329 13 386 6 36
68 170 78 170 5 0 9 5 9 10 0 10 77 129 90 140 4 3 24 32 45 64 22 33 48 69
59 81 12 11 32 34 46 50 14 17 54 64 90 106 36 42 81 96 100 119 36 45 55 65
192 206 106 109 175 174 183 174 3 0 19 12 35 28 15 15 40 36 56 47 15 11 44
36 65 55 71 67 148 133 176 150 15 10 37 26 48 36 51 48 230 188 320 250 55
38 134 92 175 121 41 29 117 78 168 110 51 32 126 79 165 105 82 53 87 55 80
30z m-1073 -436 c0 -3 -6 -11 -13 -18 -7 -7 -39 -43 -72 -79 -237 -260 -264
-292 -370 -439 -37 -52 -85 -113 -105 -135 -80 -88 -218 -283 -341 -482 -20
-32 -74 -119 -121 -193 -47 -74 -99 -161 -116 -193 -34 -64 -31 -16 -35 -552
l-2 -190 -38 -80 c-21 -44 -43 -89 -49 -100 -6 -11 -16 -29 -22 -40 -31 -57
-154 -233 -188 -269 -44 -46 -55 -78 -40 -109 32 -69 61 -137 72 -172 7 -22
16 -44 20 -50 4 -5 13 -35 19 -65 7 -30 23 -90 36 -133 14 -43 25 -82 25 -88
0 -22 -18 -6 -37 34 -11 23 -71 143 -133 267 -63 124 -113 227 -112 230 4 16
69 198 97 275 52 143 60 208 59 510 -1 257 -13 427 -36 507 -9 32 -8 40 13 70
13 18 26 35 29 38 3 3 35 43 70 90 217 288 461 549 875 935 324 303 515 462
515 431z m663 -161 c-3 -9 -8 -14 -10 -11 -3 3 -2 9 2 15 9 16 15 13 8 -4z
m2857 -902 c0 -14 -84 -93 -98 -93 -8 0 -37 -13 -64 -30 -26 -16 -52 -30 -57
-30 -5 0 -11 -3 -13 -7 -1 -5 -30 -22 -63 -39 -33 -18 -89 -48 -125 -68 -36
-20 -73 -39 -82 -43 -10 -3 -18 -10 -18 -15 0 -5 -4 -7 -9 -3 -6 3 -14 -3 -20
-12 -6 -10 -11 -14 -11 -9 0 5 -12 -1 -26 -15 -14 -13 -29 -24 -32 -23 -17 2
-42 -9 -42 -19 0 -6 -3 -7 -6 -4 -4 4 -24 -7 -44 -23 -21 -17 -43 -30 -49 -30
-6 0 -11 -5 -11 -11 0 -5 -4 -8 -8 -5 -5 3 -20 -6 -34 -19 -14 -13 -29 -21
-32 -18 -3 4 -6 1 -6 -6 0 -8 -7 -11 -15 -7 -8 3 -15 1 -15 -4 0 -6 -7 -10
-15 -10 -8 0 -15 -5 -15 -11 0 -5 -5 -7 -11 -4 -6 4 9 21 35 38 72 50 59 61
-35 28 -30 -10 -75 -29 -99 -41 -24 -12 -59 -23 -76 -25 -18 -1 -40 -9 -49
-18 -9 -10 -25 -17 -36 -17 -10 0 -19 -5 -19 -11 0 -6 -7 -9 -15 -5 -8 3 -15
2 -15 -3 0 -12 -143 -71 -177 -73 -7 -1 -13 -5 -13 -9 0 -4 -10 -11 -22 -14
-13 -4 -52 -19 -88 -35 -36 -15 -110 -45 -165 -65 -55 -21 -120 -47 -145 -58
-25 -11 -79 -34 -120 -52 -41 -18 -100 -44 -130 -58 -30 -13 -72 -31 -92 -38
-21 -7 -38 -16 -38 -20 0 -9 -44 -21 -90 -25 -19 -2 -72 -13 -118 -25 -86 -22
-113 -19 -74 10 13 9 54 40 92 69 38 28 73 52 77 52 5 0 22 13 37 29 16 16 50
44 77 63 27 18 49 38 49 45 0 6 12 20 27 31 47 34 17 37 -54 5 -38 -16 -90
-35 -118 -42 -48 -12 -140 -46 -215 -78 -78 -34 -223 -83 -230 -78 -5 3 -10 1
-12 -4 -3 -10 -211 -87 -373 -138 -181 -57 -199 -62 -203 -58 -12 12 26 81 65
117 176 166 343 336 343 351 0 9 4 17 9 17 5 0 12 12 16 28 l7 27 11 -23 c9
-19 15 -21 46 -16 44 7 282 74 296 82 6 4 15 8 20 9 6 1 104 29 219 62 115 34
221 63 235 65 14 2 26 5 26 6 0 1 7 3 15 5 8 2 39 11 69 19 30 8 58 13 63 10
4 -3 8 -1 8 5 0 5 15 13 33 16 17 4 38 12 45 18 7 5 15 7 19 4 3 -4 12 -2 20
4 7 6 13 9 13 6 0 -3 15 -1 33 5 17 5 57 15 87 22 101 23 255 70 258 78 2 4
17 8 33 8 16 0 64 9 105 20 72 20 305 70 349 75 11 1 20 3 20 4 0 2 7 4 16 6
9 1 54 12 100 23 46 10 99 20 118 21 19 1 39 5 45 9 6 4 13 7 16 7 26 4 116
19 120 20 37 9 120 21 193 30 27 3 52 7 56 10 5 2 26 7 47 10 21 3 59 10 84
14 60 11 90 12 90 4z m-5669 -460 c12 -27 23 -52 24 -58 1 -5 17 -59 35 -120
17 -60 34 -119 37 -130 3 -11 10 -25 15 -32 29 -37 75 -242 108 -485 5 -37 18
-103 30 -147 11 -43 20 -92 20 -108 0 -15 11 -62 24 -103 42 -132 56 -183 71
-264 9 -44 20 -85 25 -91 5 -6 11 -20 13 -31 2 -10 9 -32 15 -47 16 -39 16
-39 -16 -23 -41 21 -121 110 -143 160 -10 24 -25 72 -33 107 -15 65 -35 143
-60 234 -8 28 -25 95 -37 150 -12 55 -26 104 -31 110 -4 5 -8 18 -8 30 0 11
-9 56 -20 100 -37 145 -75 346 -90 470 -13 107 -16 325 -5 325 2 0 14 -21 26
-47z m4729 -103 c0 -5 -5 -10 -11 -10 -5 0 -7 5 -4 10 3 6 8 10 11 10 2 0 4
-4 4 -10z m-4582 -136 c-4 -3 -12 5 -18 18 -12 22 -12 22 6 6 10 -10 15 -20
12 -24z m4331 22 c-30 -27 -176 -131 -299 -213 -85 -56 -173 -115 -195 -131
-58 -41 -224 -161 -265 -191 -19 -14 -57 -41 -85 -60 -40 -27 -334 -268 -355
-291 -3 -3 -31 -27 -63 -53 l-57 -49 -101 16 c-55 9 -155 30 -222 46 -67 16
-130 30 -139 30 -10 0 -18 3 -18 8 0 8 12 16 95 62 33 18 76 43 95 55 19 12
80 46 135 75 55 29 105 56 110 60 18 13 638 325 685 345 25 10 86 38 135 61
72 34 374 169 495 222 24 10 58 16 49 8z m-3856 -93 c3 -16 5 -83 4 -151 -2
-122 -2 -123 -32 -150 -34 -32 -58 -43 -71 -34 -13 9 -125 150 -146 183 -16
25 -16 28 0 43 20 20 152 106 162 106 4 0 13 7 20 15 21 26 57 19 63 -12z
m747 -440 c51 -130 86 -207 149 -333 85 -169 96 -185 126 -183 60 4 349 128
431 184 27 19 55 29 78 29 35 0 60 -5 301 -55 66 -14 160 -32 209 -40 49 -8
159 -30 245 -49 86 -18 217 -46 291 -60 74 -15 191 -40 260 -56 69 -15 193
-43 275 -60 83 -18 193 -43 245 -57 52 -14 149 -38 215 -54 132 -33 327 -90
322 -96 -2 -1 -48 4 -103 13 -54 8 -137 19 -184 24 -47 5 -98 12 -115 14 -16
3 -201 8 -410 12 -525 8 -892 21 -945 34 -25 6 -64 15 -87 20 -22 5 -65 20
-95 34 -29 13 -70 31 -90 39 -38 16 -54 43 -20 34 93 -25 169 -31 150 -12 -10
10 -221 47 -241 41 -12 -3 -47 8 -89 29 -89 45 -124 45 -194 0 -57 -37 -280
-135 -363 -161 -68 -21 -220 -55 -266 -60 -22 -2 -50 -6 -62 -9 -16 -4 -30 6
-60 43 -22 26 -52 69 -69 96 -16 27 -42 69 -57 95 -52 86 -81 154 -104 248 -5
21 18 68 140 293 48 90 61 110 68 110 3 0 25 -48 49 -107z m-1365 -45 c9 -40
19 -82 21 -93 7 -32 23 -98 30 -126 5 -22 -3 -38 -42 -85 -26 -33 -51 -61 -56
-62 -11 -5 -194 -249 -232 -310 -58 -93 -166 -312 -201 -407 -20 -55 -40 -109
-45 -120 -54 -131 -114 -401 -125 -562 -3 -48 -10 -104 -15 -124 -23 -83 -5
-439 31 -629 11 -58 24 -125 28 -150 13 -67 60 -236 76 -273 7 -18 26 -66 41
-107 15 -41 41 -104 59 -140 73 -147 83 -167 110 -215 53 -95 158 -250 231
-342 76 -94 302 -333 315 -333 4 0 30 -22 59 -50 29 -27 55 -50 58 -50 4 0 26
-17 49 -38 45 -41 187 -142 199 -142 4 0 15 -6 23 -14 9 -8 75 -43 146 -79
129 -65 163 -80 240 -110 22 -8 63 -24 90 -35 79 -32 189 -62 319 -88 239 -49
296 -55 511 -56 299 -2 471 22 755 103 104 29 162 49 319 111 96 37 313 154
331 179 3 3 14 9 25 13 11 3 33 17 49 31 16 14 35 25 42 25 7 0 14 3 16 8 2 4
23 20 48 37 54 35 153 122 275 242 86 83 119 121 226 253 131 162 264 400 318
571 16 51 14 71 -6 68 -10 -1 -122 -1 -249 0 -198 1 -231 3 -231 16 0 8 5 15
10 15 5 0 4 7 -3 15 -7 8 -15 13 -19 11 -3 -2 -15 8 -25 22 -11 14 -13 21 -6
17 8 -5 209 -9 446 -9 238 -1 436 -4 439 -8 22 -22 -200 -510 -297 -653 -72
-107 -225 -307 -294 -386 -185 -210 -429 -417 -645 -547 -69 -42 -390 -209
-409 -213 -9 -2 -23 -7 -130 -44 -109 -38 -266 -82 -335 -95 -22 -4 -77 -15
-122 -24 -84 -17 -97 -18 -283 -32 -391 -30 -748 18 -1160 156 -159 53 -397
164 -525 245 -38 24 -90 56 -115 71 -64 40 -194 135 -203 151 -4 7 -13 13 -18
13 -12 0 -56 38 -147 128 -35 34 -68 62 -72 62 -5 0 -16 9 -24 21 -8 12 -41
49 -73 84 -32 34 -69 79 -83 99 -49 71 -93 126 -101 126 -5 0 -9 5 -9 10 0 6
-5 16 -11 23 -6 7 -27 37 -47 68 -20 31 -54 81 -74 112 -21 31 -49 80 -64 109
-15 29 -30 55 -35 56 -5 2 -9 10 -9 17 0 7 -7 26 -15 42 -8 15 -33 69 -56 118
-23 50 -46 92 -51 93 -4 2 -8 14 -8 26 0 12 -4 26 -9 32 -10 10 -33 77 -44
124 -1 8 -8 25 -15 37 -7 12 -11 26 -10 30 3 11 -11 69 -28 122 -20 59 -72
320 -79 390 -3 31 -8 83 -11 116 -10 91 -9 410 0 500 4 44 10 105 13 135 2 30
7 62 10 70 7 17 8 22 18 100 4 30 14 75 22 100 8 25 25 86 38 135 27 106 58
203 86 262 10 24 19 47 19 51 0 5 6 22 14 38 41 85 86 183 86 188 0 3 20 38
45 78 25 40 45 76 45 81 0 13 109 175 151 223 21 25 44 55 50 67 33 63 154
213 242 298 15 15 27 30 27 33 0 9 33 46 41 46 4 0 15 -33 24 -72z m1002 -113
c64 -233 110 -327 271 -557 60 -87 79 -108 99 -108 40 0 241 49 348 85 181 61
209 72 319 126 l110 53 75 -28 c42 -15 101 -37 131 -47 30 -11 105 -44 165
-73 61 -29 144 -66 185 -81 58 -22 325 -153 438 -215 9 -5 194 -97 410 -205
216 -107 456 -228 535 -268 78 -40 179 -90 225 -111 45 -20 82 -41 82 -45 0
-4 -33 3 -72 15 -40 13 -149 44 -243 70 -93 26 -231 68 -305 94 -74 26 -226
80 -338 119 -256 90 -351 121 -378 121 -12 0 -43 12 -70 26 -27 14 -75 40
-106 56 l-58 30 -79 -16 c-85 -17 -86 -17 -206 40 -16 7 -52 20 -80 28 -27 7
-90 25 -139 40 -106 31 -134 32 -267 5 -152 -30 -268 -63 -409 -114 -183 -67
-362 -125 -386 -125 -22 0 -73 56 -230 255 -69 86 -234 245 -255 245 -12 0 3
-31 24 -48 8 -7 22 -30 32 -52 10 -22 22 -40 27 -40 4 0 8 -7 8 -16 0 -8 -4
-12 -10 -9 -5 3 -10 1 -10 -4 0 -6 5 -11 12 -11 9 0 9 -3 0 -12 -13 -13 -17
-32 -4 -25 4 3 7 -9 6 -26 -1 -18 -2 -56 -2 -84 -1 -29 -6 -53 -11 -53 -5 0
-15 26 -24 58 -53 198 -71 258 -106 347 -56 144 -56 136 -19 185 78 101 168
227 177 245 6 11 17 36 25 55 9 19 20 42 25 50 5 8 15 30 22 48 17 46 39 37
56 -23z m-914 -252 c3 -16 10 -46 17 -68 13 -48 30 -113 35 -137 2 -9 8 -25
14 -35 6 -13 6 -24 0 -34 -8 -11 -12 -11 -16 -1 -6 16 -64 47 -80 44 -20 -4
-15 12 6 25 15 9 21 9 23 1 2 -6 12 -9 21 -5 15 6 15 10 2 54 -8 26 -20 65
-26 86 -5 21 -14 37 -18 35 -6 -2 -98 -108 -133 -153 -4 -5 -24 -28 -43 -50
-19 -22 -35 -47 -35 -56 0 -8 -11 -26 -25 -39 -26 -25 -31 -32 -85 -140 -18
-36 -38 -71 -44 -78 -5 -8 -12 -24 -13 -35 -2 -12 -8 -23 -13 -25 -5 -2 -7 -9
-4 -15 2 -7 -4 -22 -15 -34 -11 -11 -17 -23 -14 -27 3 -3 2 -13 -2 -23 -5 -10
-7 -21 -7 -25 3 -11 -16 -10 -23 2 -5 8 19 75 44 121 5 8 24 51 42 95 32 78
94 186 111 192 4 2 8 8 8 13 0 6 30 49 67 97 37 48 85 111 107 140 21 28 43
52 47 52 5 0 9 8 9 18 0 41 35 44 43 5z m-8 -301 c-8 -8 -13 0 -20 33 l-7 30
16 -29 c9 -16 14 -31 11 -34z m-195 -27 c-7 -8 -18 -15 -24 -15 -6 0 -2 7 8
15 25 19 32 19 16 0z m33 -22 c-6 -15 -19 -17 -27 -4 -7 11 0 18 18 18 8 0 12
-6 9 -14z m37 2 c-8 -9 -9 -15 -2 -15 6 0 14 5 17 10 5 8 11 7 21 -1 7 -6 21
-9 29 -5 8 3 15 1 15 -4 0 -6 -5 -10 -12 -10 -6 0 -9 -3 -6 -6 3 -3 15 0 27 7
11 7 24 9 28 5 4 -5 2 -11 -4 -13 -7 -3 -13 -9 -13 -15 0 -5 14 1 32 13 l31
23 -5 -22 c-4 -12 -2 -20 2 -17 9 5 25 -33 18 -41 -3 -2 -14 5 -25 16 -12 10
-23 17 -26 14 -7 -7 -97 19 -92 26 2 4 -9 7 -25 7 -17 0 -33 3 -36 6 -8 8 15
37 28 37 6 0 5 -7 -2 -15z m150 6 c0 -6 -4 -13 -10 -16 -5 -3 -10 1 -10 9 0 9
5 16 10 16 6 0 10 -4 10 -9z m168 -103 c22 -18 82 -67 134 -110 99 -79 194
-144 288 -195 100 -54 119 -68 130 -92 6 -13 9 -25 7 -27 -8 -8 -153 -8 -169
0 -14 6 -18 4 -18 -9 0 -32 120 -376 146 -416 14 -22 24 -48 22 -57 -3 -17
-55 -51 -113 -74 -45 -17 -326 -161 -357 -182 -27 -17 -28 -22 -28 -95 1 -126
39 -485 67 -636 15 -85 27 -152 42 -239 8 -45 23 -71 85 -153 41 -55 86 -110
99 -124 13 -13 86 -96 164 -184 144 -164 185 -205 337 -335 48 -41 92 -82 97
-92 20 -37 -34 -5 -436 257 -67 44 -176 113 -241 154 -165 102 -285 185 -379
262 l-80 66 -7 259 c-9 307 -39 532 -108 819 -16 66 -30 140 -32 164 l-3 45
55 11 c76 17 173 51 251 89 86 42 199 118 199 133 0 7 -6 32 -14 55 -8 24 -24
84 -36 133 -12 50 -32 124 -45 165 -12 41 -35 127 -50 190 -15 63 -32 133 -40
155 -21 66 -26 95 -17 95 5 0 27 -15 50 -32z m-383 12 c3 -5 1 -10 -4 -10 -6
0 -11 5 -11 10 0 6 2 10 4 10 3 0 8 -4 11 -10z m134 -21 c129 -41 152 -53 172
-93 10 -22 19 -45 19 -51 0 -6 11 -44 24 -85 66 -205 110 -358 143 -497 4 -18
-5 -28 -53 -59 -118 -76 -310 -153 -419 -170 -25 -3 -45 -11 -45 -16 0 -11 4
-27 44 -178 14 -52 32 -142 40 -200 9 -58 22 -152 31 -209 21 -144 38 -387 41
-576 l1 -160 100 -75 c55 -41 148 -110 207 -152 66 -49 110 -88 117 -105 21
-51 72 -147 127 -238 30 -49 63 -106 74 -125 21 -37 64 -96 85 -118 7 -7 13
-17 13 -21 0 -4 8 -16 18 -27 54 -60 105 -144 87 -144 -7 0 -179 143 -302 250
-167 147 -258 236 -346 344 -45 54 -92 110 -105 125 -70 80 -230 319 -294 440
-36 69 -39 78 -32 130 3 31 17 99 29 151 38 153 48 283 41 505 -3 110 -10 232
-15 270 -26 195 -26 201 0 208 13 4 34 7 47 7 12 0 57 17 100 39 42 21 111 53
152 70 41 17 81 35 87 39 17 11 -34 169 -126 397 -126 309 -134 335 -109 335
6 0 28 -5 47 -11z m-119 -8 c0 -5 -7 -12 -16 -15 -14 -5 -15 -4 -4 9 14 17 20
19 20 6z m16 -69 c-4 -3 -11 0 -16 8 -15 24 -11 33 6 15 9 -9 13 -19 10 -23z
m1011 -40 c0 -10 -8 -25 -16 -32 -13 -12 -14 -12 -8 4 4 10 7 27 7 37 0 11 4
18 9 14 6 -3 9 -14 8 -23z m-996 11 c-7 -3 -9 -8 -5 -12 10 -7 44 -66 44 -75
0 -3 -8 2 -19 12 -10 9 -18 19 -17 22 0 3 -5 15 -12 26 -12 22 -7 35 12 33 6
0 5 -3 -3 -6z m3949 -25 c0 -10 115 -13 543 -13 298 0 625 -4 727 -8 102 -4
244 -10 315 -12 72 -2 166 -7 210 -12 44 -4 115 -8 158 -7 42 0 77 -1 77 -3 0
-13 -92 -38 -180 -48 -25 -3 -52 -8 -61 -11 -9 -2 -32 -7 -50 -9 -71 -9 -116
-14 -171 -20 -31 -3 -71 -10 -88 -15 -16 -5 -30 -7 -30 -4 0 3 -10 0 -21 -7
-17 -9 -20 -8 -14 2 6 8 4 10 -6 3 -14 -9 -26 -12 -69 -17 -14 -2 -32 -7 -39
-11 -7 -4 -15 -6 -17 -3 -3 2 -22 0 -42 -5 -20 -5 -62 -11 -93 -13 -77 -5
-195 -14 -249 -20 -25 -3 -81 -7 -125 -10 -102 -6 -251 -16 -290 -20 -16 -2
-68 -6 -115 -9 -47 -3 -155 -11 -242 -17 l-156 -11 -121 68 c-66 38 -119 73
-118 79 4 11 124 95 137 95 4 0 10 4 12 8 4 12 90 62 106 62 6 0 12 -6 12 -12z
m-2858 -96 c15 -20 52 -68 83 -107 30 -38 55 -75 55 -81 0 -6 11 -24 25 -40
14 -16 25 -34 25 -41 0 -18 -57 -112 -100 -163 -20 -25 -52 -72 -71 -105 -18
-33 -57 -103 -86 -155 -29 -52 -53 -102 -52 -110 0 -20 60 48 85 97 10 21 29
48 41 62 l21 24 6 -79 c3 -44 11 -133 16 -199 6 -66 10 -140 10 -164 l0 -43
36 7 c21 3 57 23 81 43 46 38 143 183 143 213 0 10 5 21 10 24 6 3 10 17 10
31 0 13 4 32 9 42 28 56 35 106 36 261 l0 163 70 48 c118 81 111 93 107 -175
-2 -126 -6 -243 -9 -260 -3 -18 -2 -26 4 -20 14 16 31 73 48 160 14 75 116
335 155 395 8 14 22 38 30 54 29 56 102 124 149 136 58 15 176 -10 215 -47 33
-30 61 -86 70 -138 27 -166 46 -314 46 -358 0 -62 39 -308 51 -321 5 -6 9 -2
9 10 0 81 34 350 50 402 62 192 159 302 332 372 l57 23 63 -30 c131 -64 194
-149 268 -363 39 -109 38 -152 -1 -226 -60 -115 -359 -523 -449 -612 -52 -52
-110 -81 -161 -82 -36 0 -97 -16 -112 -30 -24 -22 -59 -370 -37 -370 11 0 17
19 30 100 10 68 30 147 48 190 16 41 38 53 79 47 44 -7 98 -58 326 -307 198
-215 291 -329 275 -335 -7 -3 -132 -6 -278 -7 -264 -3 -265 -3 -268 -25 -3
-19 -11 -22 -50 -25 l-47 -3 0 -205 0 -205 -90 0 c-88 0 -90 1 -103 28 -7 15
-21 27 -30 27 -89 3 -325 -1 -332 -5 -19 -12 -21 18 -2 38 10 12 36 47 55 77
20 30 61 89 91 130 29 41 51 79 48 84 -3 5 0 6 5 3 6 -4 17 1 24 10 12 14 12
16 -1 8 -13 -8 -13 -7 0 11 8 10 18 21 21 24 10 8 40 70 34 70 -5 0 -82 -54
-154 -108 -64 -48 -149 -85 -381 -164 -307 -105 -318 -108 -369 -108 -35 0
-61 8 -101 33 -59 34 -101 91 -180 236 -22 42 -70 109 -105 149 -68 76 -79 99
-73 153 3 31 -1 36 -49 62 -41 22 -53 34 -59 60 -11 51 -33 77 -93 106 -82 41
-231 122 -231 127 0 2 39 33 88 69 102 77 205 189 238 260 16 36 25 77 30 145
5 78 13 113 46 195 44 111 44 121 10 247 -21 77 -21 78 -3 170 28 136 54 218
99 302 41 76 73 125 82 125 3 0 17 -16 32 -37z m-1042 14 c0 -11 -19 -15 -25
-6 -3 5 1 10 9 10 9 0 16 -2 16 -4z m19 -56 c11 -24 11 -24 -3 -6 -9 11 -16
24 -16 30 0 12 5 7 19 -24z m-393 -45 c-9 -7 -14 -19 -11 -27 4 -9 -1 -22 -9
-31 -19 -19 -21 -31 -4 -21 7 5 2 -5 -10 -21 -15 -19 -19 -31 -11 -35 7 -5 3
-15 -12 -29 -15 -14 -25 -18 -28 -10 -2 6 0 14 5 18 5 3 10 17 12 30 1 14 9
38 17 54 8 17 15 38 15 49 0 10 5 18 10 18 6 0 10 7 10 15 0 9 6 12 16 8 16
-6 16 -7 0 -18z m404 11 c0 -3 -4 -8 -10 -11 -5 -3 -10 -1 -10 4 0 6 5 11 10
11 6 0 10 -2 10 -4z m1521 -72 c-60 -33 -204 -128 -263 -174 -37 -28 -35 -13
4 52 18 29 33 54 34 56 3 6 260 101 274 101 8 1 -14 -15 -49 -35z m-1481 -18
c0 -3 -4 -8 -10 -11 -5 -3 -10 -1 -10 4 0 6 5 11 10 11 6 0 10 -2 10 -4z m2
-38 c-7 -7 -12 -8 -12 -2 0 14 12 26 19 19 2 -3 -1 -11 -7 -17z m23 -18 c3 -5
1 -10 -4 -10 -6 0 -11 5 -11 10 0 6 2 10 4 10 3 0 8 -4 11 -10z m22 -36 c2 -5
-6 -10 -16 -11 -14 -1 -18 3 -14 13 6 16 25 14 30 -2z m-553 -29 c-4 -8 -11
-15 -16 -15 -6 0 -7 -7 -4 -16 4 -10 2 -13 -6 -8 -8 5 -9 2 -5 -9 3 -9 2 -19
-4 -23 -6 -3 -8 -11 -6 -17 2 -7 0 -20 -5 -29 -6 -12 -5 -18 2 -18 6 0 8 -5 5
-10 -4 -6 -11 -8 -16 -5 -5 3 -6 -1 -3 -9 3 -9 1 -16 -5 -16 -13 0 -15 56 -1
65 5 3 7 12 4 19 -3 8 -1 17 5 21 6 3 11 17 11 30 0 13 10 31 22 39 28 20 29
20 22 1z m576 -44 c8 -15 8 -21 1 -17 -18 11 -13 -3 13 -37 20 -27 27 -61 14
-72 -17 -14 -88 -43 -88 -35 0 6 11 16 25 22 14 6 26 16 27 22 0 6 2 16 2 21
1 6 5 16 9 22 5 8 -3 28 -20 50 -17 23 -21 32 -9 23 18 -14 18 -13 11 10 -9
29 -3 25 15 -9z m1110 -182 c0 -77 -51 -230 -91 -273 -34 -37 -46 -15 -53 97
-9 125 -1 146 71 200 43 33 49 35 61 20 6 -9 12 -29 12 -44z m-1747 18 c-4 -6
-8 -18 -9 -27 -1 -8 -5 -24 -9 -34 -6 -14 -5 -17 3 -12 16 9 15 5 -4 -33 -9
-17 -13 -39 -10 -48 4 -8 1 -22 -5 -29 -9 -11 -9 -14 0 -14 7 0 6 -9 -5 -25
-9 -14 -12 -25 -7 -25 5 0 7 -21 3 -50 -6 -50 -15 -69 -26 -57 -12 12 -7 59 7
68 12 7 12 9 0 9 -9 0 -11 8 -7 24 3 12 8 41 11 62 11 85 28 154 37 154 6 0 8
7 4 15 -7 19 3 47 15 39 5 -3 6 -11 2 -17z m541 1 c-5 -8 -2 -9 9 -5 10 4 17
2 17 -4 0 -6 -9 -9 -20 -6 -11 3 -20 2 -20 -1 0 -4 -14 -15 -31 -25 -25 -14
-35 -15 -46 -6 -11 10 -10 15 13 29 14 10 34 16 44 13 10 -3 21 0 24 6 4 6 9
11 12 11 3 0 2 -5 -2 -12z m-162 -50 c-23 -23 -12 -29 17 -9 27 19 30 19 42 4
12 -14 12 -16 -1 -11 -8 2 -21 -2 -29 -9 -8 -8 -23 -12 -34 -9 -11 3 -32 -3
-47 -14 -16 -12 -31 -15 -40 -10 -7 4 -18 6 -25 4 -6 -3 -12 1 -12 9 0 7 6 14
14 14 7 0 13 -4 13 -9 0 -22 47 -1 84 39 6 7 15 12 21 13 5 0 4 -5 -3 -12z
m4623 -86 c-3 -3 -11 0 -18 7 -9 10 -8 11 6 5 10 -3 15 -9 12 -12z m-4735 -2
c0 -5 -4 -10 -10 -10 -5 0 -10 5 -10 10 0 6 5 10 10 10 6 0 10 -4 10 -10z
m1568 -102 c28 -28 1 -75 -38 -63 -33 11 -21 75 15 75 6 0 16 -5 23 -12z
m-603 -112 c1 -27 -5 -41 -25 -61 -16 -15 -30 -22 -34 -17 -3 5 8 19 25 31 27
20 33 50 6 34 -7 -4 -6 0 2 10 7 9 11 17 8 17 -14 0 -57 -24 -57 -31 0 -5 -10
-13 -22 -19 -22 -11 -22 -10 -4 4 11 9 16 16 10 16 -5 0 11 13 36 30 24 16 46
27 48 25 3 -2 6 -20 7 -39z m-1275 -25 c0 -6 -5 -13 -10 -16 -8 -5 -7 -11 1
-21 9 -11 9 -14 0 -14 -8 0 -10 -8 -6 -20 4 -12 1 -28 -7 -37 -7 -9 -8 -14 -2
-11 12 8 13 -190 1 -209 -5 -8 -4 -13 2 -13 6 0 11 -7 11 -15 0 -15 -19 -22
-21 -7 0 4 -3 83 -5 175 -4 120 -1 173 7 183 13 16 29 19 29 5z m1130 -16
c-11 -13 -10 -14 3 -10 8 4 18 1 22 -4 3 -6 11 -9 16 -6 5 3 18 -3 30 -14 17
-16 25 -18 40 -8 11 7 19 15 19 19 0 5 5 8 10 8 6 0 10 -14 10 -31 0 -24 -3
-29 -17 -25 -10 3 -51 10 -92 17 -60 9 -75 8 -82 -3 -7 -10 -9 -9 -9 5 0 17
-2 17 -22 3 -13 -9 -31 -13 -46 -9 -16 4 -23 2 -19 -4 4 -6 -5 -16 -18 -23
-18 -10 -24 -19 -20 -34 3 -12 2 -15 -1 -8 -9 20 -19 14 -19 -13 0 -16 5 -23
13 -20 6 2 12 0 12 -4 0 -5 -6 -12 -12 -14 -10 -4 -9 -8 2 -17 11 -9 12 -13 3
-17 -19 -7 -16 -26 3 -19 14 5 15 4 5 -8 -7 -8 -10 -20 -6 -26 4 -6 1 -18 -6
-26 -10 -13 -10 -17 0 -24 9 -5 10 -10 2 -14 -6 -4 -11 -12 -11 -17 0 -6 5 -7
10 -4 6 3 10 2 10 -4 0 -5 -4 -13 -10 -16 -13 -8 -13 -52 0 -60 5 -3 7 -12 3
-20 -4 -11 0 -14 13 -9 18 5 18 5 2 -6 -10 -6 -18 -15 -18 -21 0 -19 157 95
208 151 46 50 82 112 88 151 6 37 8 38 20 20 8 -11 11 -27 7 -38 -16 -43 -77
-126 -125 -170 -28 -26 -60 -56 -69 -65 -23 -22 -122 -88 -132 -88 -4 0 -7 6
-6 13 1 6 -1 28 -5 47 -4 19 -8 113 -10 208 l-3 173 49 25 c26 13 48 20 48 14
0 -5 4 -10 10 -10 5 0 7 6 4 13 -3 9 9 18 36 27 23 7 43 17 46 22 3 4 10 8 16
8 6 0 6 -6 -2 -15z m-786 -261 c-1 -209 -7 -293 -23 -359 -6 -22 -11 -57 -11
-78 0 -21 -5 -48 -12 -60 -6 -12 -13 -38 -14 -57 -1 -19 -3 -37 -4 -40 -2 -3
-4 -9 -5 -15 -1 -5 -5 -26 -9 -46 -7 -32 -1 -48 42 -131 50 -96 81 -149 93
-158 3 -3 19 -25 34 -50 35 -55 148 -204 187 -245 15 -16 45 -53 66 -81 20
-29 88 -105 150 -169 61 -65 112 -122 112 -127 0 -12 -250 243 -250 254 0 4
-12 20 -27 36 -70 72 -241 299 -323 427 -77 121 -92 150 -94 171 0 13 -4 24
-7 24 -17 0 -15 42 3 65 11 14 14 25 8 25 -6 0 -8 5 -3 13 4 6 9 30 10 51 2
21 9 46 15 54 11 12 11 16 0 19 -6 3 -10 8 -8 12 8 12 45 289 50 366 3 39 5
72 6 75 2 5 0 77 -3 173 -2 35 1 56 8 54 6 -2 10 -74 9 -203z m-355 -162 c-6
-3 -6 -9 2 -18 7 -8 9 -17 5 -21 -10 -11 -16 2 -20 43 -4 50 5 67 16 29 5 -19
4 -31 -3 -33z m4796 -48 c132 -5 311 -8 399 -7 139 2 157 1 146 -12 -25 -31
-111 -60 -200 -69 -37 -4 -141 -17 -175 -22 -11 -1 -20 -3 -20 -4 0 -1 -25 -4
-55 -6 -30 -2 -63 -6 -72 -8 -10 -2 -15 1 -12 9 3 8 -9 14 -38 18 -89 11 -504
-7 -640 -29 -24 -3 -38 -2 -38 5 0 16 65 62 97 67 15 2 39 7 53 11 14 3 30 7
37 9 7 1 47 12 90 24 98 28 86 26 141 24 26 -1 155 -6 287 -10z m-4782 -61
c-4 -11 -3 -14 5 -9 8 5 10 2 6 -8 -3 -9 -8 -16 -10 -16 -7 0 -23 74 -17 83 9
15 24 -30 16 -50z m26 -97 c7 -5 7 -13 -2 -27 -9 -15 -9 -21 0 -27 7 -4 9 -13
4 -21 -12 -19 -18 -4 -25 64 -4 41 -3 53 3 39 5 -12 14 -25 20 -28z m956 -26
c4 -6 11 -8 16 -5 5 4 9 1 9 -4 0 -6 9 -11 19 -11 11 0 23 -4 26 -10 3 -5 31
-22 62 -36 60 -27 114 -64 94 -64 -7 0 -42 16 -80 35 -37 19 -72 35 -78 35 -6
0 -13 5 -15 11 -2 5 -11 7 -20 4 -18 -7 -18 -42 1 -139 5 -27 7 -55 4 -63 -3
-7 -1 -13 4 -13 5 0 9 -8 10 -17 2 -22 11 -78 13 -78 1 0 3 -11 6 -24 3 -19 2
-22 -10 -12 -12 10 -17 31 -30 111 -1 9 -5 21 -10 28 -4 7 -9 31 -11 55 -8 92
-18 143 -30 161 -14 18 -10 46 5 46 5 0 12 -5 15 -10z m-933 -109 c-4 -11 -8
-10 -18 4 -7 10 -11 22 -8 26 8 14 32 -14 26 -30z m18 -55 c0 -3 -4 -8 -10
-11 -5 -3 -10 -1 -10 4 0 6 5 11 10 11 6 0 10 -2 10 -4z m20 -30 c0 -2 -7 -7
-16 -10 -8 -3 -12 -2 -9 4 6 10 25 14 25 6z m1170 -5 c0 -5 -3 -17 -6 -26 -5
-12 -9 -14 -14 -4 -5 7 -6 18 -3 26 6 15 23 18 23 4z m94 -58 c15 -4 18 -12
13 -50 -2 -25 -13 -52 -22 -62 -17 -15 -17 -15 -12 2 4 9 2 17 -4 17 -6 0 -7
5 -3 12 14 22 12 67 -3 61 -7 -3 -13 0 -13 5 0 6 -10 13 -22 15 -14 3 -9 5 12
5 19 -1 43 -3 54 -5z m-1249 -43 c-9 -15 -25 -2 -25 21 0 19 1 19 16 5 8 -9
12 -20 9 -26z m15 -20 c0 -5 -5 -10 -11 -10 -5 0 -7 5 -4 10 3 6 8 10 11 10 2
0 4 -4 4 -10z m18 -60 c14 0 15 -2 2 -10 -16 -10 -30 5 -29 30 1 11 3 10 6 -2
2 -10 12 -18 21 -18z m1345 -154 c-4 -6 -8 -5 -11 4 -3 8 -18 27 -34 42 -15
14 -28 31 -28 37 0 6 -4 11 -10 11 -5 0 -10 6 -10 13 0 6 23 -12 50 -42 27
-30 46 -59 43 -65z m-1323 94 c0 -5 -5 -10 -11 -10 -5 0 -7 5 -4 10 3 6 8 10
11 10 2 0 4 -4 4 -10z m4136 -5 c11 -11 20 -12 34 -5 13 7 21 5 30 -5 7 -9 10
-18 6 -22 -3 -3 -6 -2 -6 3 0 5 -10 11 -22 11 -16 2 -19 0 -9 -6 9 -6 10 -11
2 -15 -6 -4 -14 -1 -17 7 -6 15 -20 17 -40 4 -7 -4 -18 0 -25 9 -11 14 -10 15
7 12 11 -2 18 2 17 10 -4 16 5 15 23 -3z m-3180 -33 c-4 -3 -11 0 -16 8 -15
24 -11 33 6 15 9 -9 13 -19 10 -23z m-936 8 c0 -5 -4 -10 -10 -10 -5 0 -10 5
-10 10 0 6 5 10 10 10 6 0 10 -4 10 -10z m4206 -12 c-3 -21 -9 -23 -67 -24
-64 0 -89 8 -89 30 0 7 3 8 8 1 8 -12 22 -13 40 -2 7 5 12 3 12 -4 0 -7 3 -9
7 -6 3 4 12 2 19 -4 8 -7 14 -7 19 1 9 14 27 13 20 -2 -3 -7 2 -3 12 9 23 28
24 28 19 1z m-4196 -12 c0 -2 -8 -10 -17 -17 -16 -13 -17 -12 -4 4 13 16 21
21 21 13z m960 -24 c0 -5 11 -15 25 -22 14 -7 25 -17 25 -22 0 -5 10 -19 23
-32 39 -41 56 -64 50 -70 -8 -8 -33 14 -33 29 0 7 -7 12 -16 11 -9 0 -24 11
-33 25 -9 15 -26 41 -39 58 -13 17 -19 31 -13 31 6 0 11 -4 11 -8z m-954 -28
c2 -23 1 -24 -11 -7 -10 13 -10 20 -2 25 7 4 12 8 12 8 0 0 1 -11 1 -26z
m1314 2 c0 -3 -4 -8 -10 -11 -5 -3 -10 -1 -10 4 0 6 5 11 10 11 6 0 10 -2 10
-4z m30 -71 c12 -25 26 -47 31 -51 5 -3 9 -11 9 -17 0 -8 -3 -7 -9 2 -5 7 -14
11 -20 7 -7 -5 -9 -1 -5 8 3 9 1 16 -5 16 -6 0 -11 7 -11 15 0 8 -4 15 -10 15
-5 0 -7 7 -4 15 4 8 1 15 -5 15 -6 0 -11 5 -11 10 0 24 20 7 40 -35z m3229 -6
c-20 -12 -22 -4 -8 23 12 21 13 21 17 4 2 -10 -2 -22 -9 -27z m-1628 -199 c9
-308 10 -670 3 -697 -5 -17 -14 -23 -34 -23 l-27 0 -7 258 c-8 313 -8 579 0
645 6 45 9 48 33 45 l26 -3 6 -225z m1349 220 c0 -5 -5 -10 -11 -10 -5 0 -7 5
-4 10 3 6 8 10 11 10 2 0 4 -4 4 -10z m-4263 -32 c-3 -8 -6 -5 -6 6 -1 11 2
17 5 13 3 -3 4 -12 1 -19z m4262 -20 c-7 -13 -7 -18 -1 -14 13 8 10 -84 -3
-104 -5 -8 -4 -11 3 -6 8 4 10 -7 6 -36 -3 -24 -6 -73 -7 -110 -1 -37 -6 -70
-11 -75 -5 -4 -7 -1 -3 9 3 9 1 19 -6 21 -9 3 -8 8 2 20 10 13 10 17 1 17 -9
0 -11 34 -8 143 2 78 7 148 11 155 14 21 28 3 16 -20z m264 -18 c-3 -11 -9
-20 -14 -20 -11 0 -11 3 -3 24 9 23 23 20 17 -4z m-4486 -6 c-3 -3 -12 -4 -19
-1 -8 3 -5 6 6 6 11 1 17 -2 13 -5z m1082 -79 c-7 -7 -15 -3 -25 10 -8 11 -23
30 -34 42 -32 37 -10 33 30 -5 25 -25 35 -40 29 -47z m-1069 61 c0 -3 -4 -8
-10 -11 -5 -3 -10 -1 -10 4 0 6 5 11 10 11 6 0 10 -2 10 -4z m1305 -25 c-3 -6
-11 -11 -17 -11 -6 0 -6 6 2 15 14 17 26 13 15 -4z m3155 9 c0 -5 -5 -10 -11
-10 -6 0 -9 -7 -6 -14 4 -10 1 -13 -8 -10 -11 5 -12 10 -2 25 13 20 27 25 27
9z m-4448 -22 c-7 -7 -12 -8 -12 -2 0 14 12 26 19 19 2 -3 -1 -11 -7 -17z m18
-18 c0 -5 -5 -10 -11 -10 -5 0 -7 5 -4 10 3 6 8 10 11 10 2 0 4 -4 4 -10z
m1300 6 c0 -3 -4 -8 -10 -11 -5 -3 -10 -1 -10 4 0 6 5 11 10 11 6 0 10 -2 10
-4z m-1284 -32 c-3 -8 1 -22 9 -30 8 -9 15 -23 14 -32 0 -14 -2 -14 -6 -2 -4
8 -15 23 -26 32 -16 15 -17 20 -7 33 16 19 24 19 16 -1z m1064 -9 c13 -14 21
-27 18 -30 -7 -7 -58 34 -58 46 0 16 16 10 40 -16z m3307 0 c-23 -22 -33 -18
-12 5 10 11 20 18 23 16 2 -3 -3 -12 -11 -21z m-2433 -40 c-4 -8 -16 -15 -28
-16 -11 0 -34 -2 -49 -4 -41 -5 -28 19 14 26 60 11 69 10 63 -6z m-561 -18
c36 -13 16 -26 -35 -23 -29 2 -62 1 -73 -3 -11 -4 -28 -6 -38 -3 -15 3 -16 6
-6 18 9 11 14 12 19 3 6 -8 13 -8 28 0 11 6 27 8 35 6 7 -3 20 1 27 10 7 9 16
12 19 7 3 -5 14 -11 24 -15z m-266 6 c-4 -3 -2 -12 4 -20 18 -21 4 -15 -16 7
-17 19 -17 20 0 20 10 0 15 -3 12 -7z m831 -45 c13 -13 16 -85 6 -113 -4 -8
-19 -22 -35 -31 -26 -13 -29 -19 -29 -68 0 -40 -5 -57 -19 -70 -46 -42 -67
-187 -35 -248 15 -29 15 -31 -9 -57 -13 -14 -45 -54 -71 -88 -37 -50 -45 -67
-40 -88 6 -26 -17 -65 -39 -65 -5 0 -15 -8 -22 -17 -11 -14 -28 -16 -106 -14
-52 1 -97 5 -100 9 -13 15 -49 432 -37 432 8 0 158 -68 190 -85 46 -26 42 -17
-13 33 -115 102 -181 172 -190 204 -15 53 -12 213 5 227 8 7 42 11 77 10 35 0
80 5 99 12 19 7 100 15 180 19 80 3 152 7 161 8 8 1 20 -3 27 -10z m-798 -8
c0 -5 -4 -10 -10 -10 -5 0 -10 5 -10 10 0 6 5 10 10 10 6 0 10 -4 10 -10z m41
-32 c28 -31 23 -43 -6 -14 -14 14 -25 28 -25 31 0 11 13 4 31 -17z m38 -18 c0
-10 -3 -8 -9 5 -12 27 -12 43 0 25 5 -8 9 -22 9 -30z m-376 -23 c31 -21 57
-43 57 -48 0 -6 5 -7 10 -4 6 3 10 1 10 -4 0 -15 -6 -14 -36 6 -24 15 -26 15
-42 -1 -14 -14 -14 -17 -2 -14 8 2 14 -3 13 -9 -2 -7 1 -13 6 -13 5 0 12 -13
16 -30 4 -16 11 -30 15 -30 5 0 7 -7 4 -15 -4 -8 -1 -15 6 -15 6 0 8 -4 5 -10
-3 -5 -1 -10 4 -10 6 0 11 -6 11 -13 0 -7 9 -23 20 -35 11 -11 16 -23 11 -27
-12 -7 -49 41 -57 72 -4 12 -11 23 -16 23 -6 0 -8 7 -4 15 3 8 1 15 -4 15 -6
0 -10 7 -10 15 0 8 -4 15 -10 15 -5 0 -10 6 -10 14 0 8 -5 16 -11 18 -5 2 -11
10 -12 18 -2 8 -6 21 -10 28 -5 6 -5 17 -2 22 3 6 -1 10 -9 10 -9 0 -15 3 -14
8 1 4 -4 18 -11 31 -15 27 -16 28 72 -32z m3430 23 c-11 -19 -21 -26 -27 -20
-6 6 -1 17 14 30 31 27 34 25 13 -10z m-4163 -25 c-7 -9 -15 -13 -17 -11 -7 7
7 26 19 26 6 0 6 -6 -2 -15z m4125 -6 c4 -11 4 -23 1 -26 -3 -4 -6 1 -6 11 0
9 -5 14 -10 11 -6 -4 -8 -16 -5 -28 2 -12 2 -16 -1 -9 -9 19 -26 14 -19 -7 3
-10 -1 -24 -10 -31 -10 -8 -15 -9 -15 -1 0 6 4 11 10 11 5 0 7 7 3 16 -6 15
-7 15 -20 -1 -7 -10 -16 -15 -20 -11 -5 4 -1 13 9 19 9 7 26 19 37 27 12 8 21
20 21 27 0 21 18 15 25 -8z m-3005 -10 c0 -5 -4 -9 -10 -9 -5 0 -10 7 -10 16
0 8 5 12 10 9 6 -3 10 -10 10 -16z m1226 -29 c19 -57 10 -67 -64 -74 -37 -4
-92 -8 -122 -9 -47 -2 -56 -5 -67 -27 -7 -14 -13 -44 -13 -68 0 -28 -9 -56
-25 -82 -30 -48 -31 -50 -2 -103 15 -30 23 -66 27 -122 5 -75 7 -81 33 -93 15
-7 80 -16 145 -20 l117 -7 3 -57 3 -58 -108 -2 c-175 -4 -229 0 -273 23 -22
12 -41 26 -41 33 -4 39 2 618 7 648 3 21 12 41 19 45 8 5 89 8 182 7 l168 -1
11 -33z m-2332 15 c-5 -11 -2 -14 12 -9 15 6 16 4 7 -6 -6 -7 -16 -9 -22 -6
-14 9 -15 36 -1 36 5 0 7 -7 4 -15z m1923 -19 c-4 -9 -13 -12 -27 -9 -20 5
-20 6 -4 25 19 20 41 10 31 -16z m-1883 -15 c3 -5 -1 -11 -9 -14 -9 -4 -12 -1
-8 9 6 16 10 17 17 5z m786 -11 c0 -5 -2 -10 -4 -10 -3 0 -8 5 -11 10 -3 6 -1
10 4 10 6 0 11 -4 11 -10z m25 -10 c3 -5 1 -10 -4 -10 -6 0 -11 5 -11 10 0 6
2 10 4 10 3 0 8 -4 11 -10z m-795 -10 c0 -5 -5 -10 -11 -10 -5 0 -7 5 -4 10 3
6 8 10 11 10 2 0 4 -4 4 -10z m1870 -8 c0 -4 -8 -12 -18 -19 -15 -9 -21 -7
-30 8 -11 17 -9 19 18 19 16 0 30 -3 30 -8z m-1850 -12 c0 -5 -5 -10 -11 -10
-5 0 -7 5 -4 10 3 6 8 10 11 10 2 0 4 -4 4 -10z m20 -30 c0 -5 -4 -10 -10 -10
-5 0 -10 5 -10 10 0 6 5 10 10 10 6 0 10 -4 10 -10z m1692 -107 c15 -13 18
-32 18 -105 0 -69 -3 -90 -15 -94 -8 -4 -12 -11 -8 -18 4 -6 -9 1 -28 15 -50
39 -64 129 -29 187 22 36 35 39 62 15z m-682 -13 c0 -11 -2 -20 -4 -20 -2 0
-6 9 -9 20 -3 11 -1 20 4 20 5 0 9 -9 9 -20z m-540 -56 c0 -12 -59 42 -59 55
-1 8 12 0 29 -17 17 -18 30 -34 30 -38z m-360 36 c0 -5 -5 -10 -11 -10 -5 0
-7 5 -4 10 3 6 8 10 11 10 2 0 4 -4 4 -10z m21 -23 c-10 -9 -11 -8 -5 6 3 10
9 15 12 12 3 -3 0 -11 -7 -18z m649 -41 c0 -4 7 -5 16 -2 12 4 14 1 9 -14 -4
-11 -2 -20 4 -20 6 0 11 -7 11 -16 0 -8 5 -12 10 -9 6 3 10 1 10 -4 0 -23 -18
-8 -56 47 -52 73 -63 95 -30 57 14 -16 25 -34 26 -39z m240 13 c0 -41 -16 -36
-17 6 -1 19 3 32 8 29 5 -3 9 -18 9 -35z m-842 -2 c15 6 15 5 3 -11 -13 -15
-16 -15 -29 -2 -9 9 -11 19 -6 28 7 10 9 9 12 -4 2 -11 9 -15 20 -11z m1844
-6 c28 -25 31 -33 22 -48 -22 -35 -104 -6 -104 37 0 19 19 40 37 40 7 0 27
-13 45 -29z m-1491 -21 c23 -22 45 -40 50 -40 5 0 9 -4 9 -10 0 -5 -4 -10 -8
-10 -10 0 -102 85 -102 94 0 12 11 5 51 -34z m-321 1 c0 -5 -7 -12 -16 -15
-14 -5 -15 -4 -4 9 14 17 20 19 20 6z m816 -70 c2 -29 0 -60 -6 -69 -9 -14
-10 -10 -9 18 0 19 0 37 -1 40 -5 14 -7 56 -3 63 9 15 14 0 19 -52z m-796 45
c0 -3 -4 -8 -10 -11 -5 -3 -10 -1 -10 4 0 6 5 11 10 11 6 0 10 -2 10 -4z m16
-33 c-10 -10 -19 5 -10 18 6 11 8 11 12 0 2 -7 1 -15 -2 -18z m63 -43 c6 0 10
-6 9 -12 -2 -7 2 -12 9 -11 7 2 10 -4 6 -13 -5 -13 -13 -8 -42 22 -20 22 -35
43 -33 47 2 4 12 -1 22 -13 9 -11 22 -20 29 -20z m323 13 c10 -9 18 -21 18
-26 0 -6 -8 -1 -17 10 -10 11 -25 22 -33 26 -12 4 -12 6 -1 6 8 1 23 -6 33
-16z m244 -15 c-1 -14 4 -22 12 -20 8 1 11 -2 7 -8 -3 -5 -1 -10 4 -10 6 0 11
-4 11 -10 0 -19 -16 -10 -39 21 -19 25 -21 33 -10 40 8 5 14 9 15 9 0 0 0 -10
0 -22z m784 -66 c0 -19 -11 -39 -34 -61 -21 -20 -36 -46 -39 -68 -11 -67 -42
-81 -70 -32 -20 36 -21 34 56 122 65 73 87 83 87 39z m-1270 -1 c0 -6 -4 -13
-10 -16 -5 -3 -10 1 -10 9 0 9 5 16 10 16 6 0 10 -4 10 -9z m631 -49 c-7 -12
-9 -5 -9 24 0 33 2 36 9 16 5 -14 5 -30 0 -40z m-563 -4 c13 3 14 1 5 -9 -9
-9 -18 -6 -42 13 -16 14 -27 28 -24 32 3 3 15 -4 25 -17 11 -12 27 -20 36 -19z
m490 22 c-2 -5 1 -10 5 -9 5 0 17 -10 27 -22 11 -12 25 -19 32 -17 9 4 14 -8
15 -42 l3 -47 -42 -6 c-50 -7 -59 -2 -32 17 10 8 21 10 22 5 5 -12 29 -12 37
1 7 11 -39 77 -68 98 -9 7 -15 18 -12 23 8 12 16 12 13 -1z m-450 -52 c15 -15
15 -28 1 -28 -5 0 -7 5 -4 10 3 6 -3 10 -15 10 -12 0 -18 5 -15 10 8 13 18 13
33 -2z m58 -41 c8 3 14 1 14 -5 0 -5 -6 -12 -13 -15 -15 -6 -50 17 -40 27 4 3
11 2 16 -3 5 -5 16 -7 23 -4z m384 -20 c8 -3 1 -4 -16 -4 -21 1 -30 6 -27 15
3 8 10 9 17 4 6 -5 18 -12 26 -15z m720 -16 c0 -9 -16 -42 -35 -74 -19 -32
-35 -61 -35 -65 0 -4 -14 -22 -31 -40 -24 -27 -36 -33 -55 -28 -13 4 -24 10
-24 14 0 4 25 43 56 87 31 44 65 95 76 113 16 26 23 30 34 21 8 -6 14 -19 14
-28z m-967 10 c-15 -15 -34 -19 -72 -18 -52 1 -71 9 -51 22 6 4 17 1 25 -5 12
-10 18 -10 29 -1 11 9 15 9 18 0 3 -9 12 -7 33 4 39 21 43 21 18 -2z m57 4
c-16 -19 -1 -19 24 0 11 8 25 15 30 15 6 0 4 -5 -4 -10 -12 -8 -13 -12 -1 -19
8 -5 -8 -8 -43 -8 -31 0 -56 2 -56 4 0 2 52 32 59 33 2 0 -2 -7 -9 -15z m109
12 c-2 -1 -13 -9 -24 -17 -19 -14 -19 -14 -6 3 7 9 18 17 24 17 6 0 8 -1 6 -3z
m47 -27 c8 0 14 -5 14 -11 0 -7 -7 -8 -17 -4 -10 4 -29 7 -43 6 -20 -1 -22 1
-10 9 8 5 21 8 28 5 8 -3 20 -5 28 -5z m874 -27 c31 -4 62 -19 99 -47 l55 -41
169 2 c106 1 166 -2 160 -8 -12 -12 -166 -56 -248 -71 -127 -24 -246 -6 -293
45 -11 12 -27 38 -35 59 -14 32 -14 38 0 58 9 13 21 19 31 15 9 -3 37 -9 62
-12z m-291 -67 c14 -16 4 -43 -23 -65 -19 -16 -52 -87 -60 -128 -4 -27 -2 -32
17 -35 26 -4 37 -45 14 -54 -22 -8 -70 20 -89 53 -16 28 -16 30 35 131 45 89
58 105 88 111 4 0 12 -5 18 -13z m-137 -37 c26 0 32 -17 16 -42 -8 -12 -25
-48 -37 -80 -19 -47 -21 -60 -11 -72 7 -9 10 -18 7 -21 -5 -6 -126 25 -179 45
-33 12 -143 155 -132 172 5 9 47 10 163 5 86 -4 164 -7 173 -7z m248 -63 c0
-3 -18 -40 -40 -83 -22 -43 -40 -86 -40 -95 0 -13 -8 -18 -28 -18 -16 0 -31 3
-34 6 -12 11 55 140 86 166 27 24 56 36 56 24z"/>
<path d="M2887 10523 c-3 -5 -1 -80 3 -168 l7 -160 1 168 c2 155 0 179 -11
160z"/>
<path d="M2968 10515 c-9 -9 4 -55 13 -49 11 7 12 54 1 54 -5 0 -11 -2 -14 -5z"/>
<path d="M2823 10415 c0 -22 2 -30 4 -17 2 12 2 30 0 40 -3 9 -5 -1 -4 -23z"/>
<path d="M2974 10325 c0 -71 1 -99 3 -62 2 37 2 96 0 130 -2 34 -3 4 -3 -68z"/>
<path d="M3412 9734 c3 -21 18 -66 34 -99 15 -33 41 -91 58 -130 39 -88 53
-112 61 -103 8 7 -133 356 -148 365 -6 4 -8 -7 -5 -33z"/>
<path d="M3337 9633 c49 -119 189 -386 204 -391 14 -5 4 16 -104 231 -54 108
-103 197 -108 197 -4 0 -1 -17 8 -37z"/>
<path d="M3260 9558 c0 -13 24 -54 73 -130 16 -24 59 -97 95 -162 36 -66 67
-115 70 -108 5 15 -85 188 -148 285 -28 44 -55 90 -60 103 -10 25 -30 33 -30
12z"/>
<path d="M4260 9493 c0 -20 104 -53 402 -126 77 -20 78 -20 78 -8 0 5 -10 11
-22 14 -28 6 -416 115 -440 123 -10 4 -18 2 -18 -3z"/>
<path d="M4260 9401 c0 -5 12 -14 28 -20 28 -11 217 -54 312 -71 30 -5 86 -19
124 -30 63 -18 89 -19 74 -5 -12 13 -485 135 -520 135 -10 0 -18 -4 -18 -9z"/>
<path d="M3045 9440 c-4 -6 13 -45 38 -88 24 -42 70 -122 101 -177 30 -55 64
-111 75 -125 24 -30 40 -20 19 12 -9 13 -55 100 -103 193 -105 204 -112 214
-130 185z"/>
<path d="M2970 9326 c0 -3 22 -34 48 -68 26 -35 76 -104 110 -153 74 -107 109
-148 122 -143 16 5 -239 363 -261 366 -10 2 -19 1 -19 -2z"/>
<path d="M2914 9245 c-4 -9 22 -47 67 -100 41 -47 89 -105 107 -128 18 -23 50
-62 70 -86 20 -24 40 -48 44 -54 4 -6 10 -9 13 -5 7 7 -104 164 -181 255 -29
34 -60 76 -70 92 -21 36 -42 47 -50 26z"/>
<path d="M4280 9232 c0 -18 41 -51 77 -62 21 -7 67 -27 103 -45 102 -52 218
-105 230 -105 6 0 40 -13 77 -30 74 -34 73 -33 73 -21 0 4 -35 23 -77 41 -84
36 -422 207 -437 221 -12 11 -46 12 -46 1z"/>
<path d="M4280 9100 c25 -20 208 -100 290 -128 25 -8 94 -35 154 -59 100 -41
135 -50 104 -26 -7 5 -42 22 -77 37 -35 16 -109 50 -165 76 -137 64 -281 120
-308 120 l-23 0 25 -20z"/>
<path d="M4260 9027 c0 -17 35 -35 170 -88 206 -80 349 -128 355 -119 4 6 -4
14 -17 19 -13 5 -54 20 -93 34 -99 36 -335 131 -372 151 -39 19 -43 20 -43 3z"/>
<path d="M2468 8678 c-3 -7 4 -44 14 -83 11 -38 23 -83 27 -100 25 -93 44
-145 53 -151 15 -9 8 23 -36 191 -37 139 -50 169 -58 143z"/>
<path d="M2540 8654 c0 -26 94 -334 111 -364 18 -32 8 16 -37 168 -26 86 -49
167 -52 180 -6 28 -22 39 -22 16z"/>
<path d="M2624 8605 c41 -161 79 -296 91 -320 16 -34 20 -23 6 21 -5 16 -24
83 -41 149 -18 66 -39 131 -47 145 -10 18 -12 20 -9 5z"/>
<path d="M2090 7886 c0 -8 4 -17 9 -20 5 -3 11 -18 14 -33 39 -209 57 -287 67
-296 10 -10 11 -8 6 7 -4 11 -9 52 -12 90 -8 110 -46 260 -67 264 -10 2 -17
-3 -17 -12z"/>
<path d="M2203 7838 c9 -53 26 -205 37 -333 12 -141 33 -227 25 -105 -11 183
-27 369 -36 418 -11 56 -35 75 -26 20z"/>
<path d="M2288 7863 c-3 -4 -2 -39 3 -78 4 -38 8 -134 8 -212 1 -78 5 -144 10
-147 16 -10 17 26 8 229 -7 179 -15 234 -29 208z"/>
<path d="M2180 8814 c0 -20 111 -349 120 -358 19 -19 10 15 -46 182 -49 149
-74 207 -74 176z"/>
<path d="M2248 8795 c-3 -3 6 -41 19 -83 14 -42 34 -108 45 -145 23 -79 47
-141 54 -135 5 6 -95 350 -105 361 -4 4 -10 5 -13 2z"/>
<path d="M4810 8521 c-63 -33 -177 -129 -215 -181 -27 -36 -65 -145 -65 -185
0 -15 21 -44 55 -80 30 -31 55 -64 55 -74 0 -11 -13 -45 -30 -76 -51 -96 -37
-137 52 -148 41 -6 51 -3 75 18 l28 25 -29 -10 c-23 -8 -86 -6 -86 3 0 1 7 24
15 52 24 76 22 141 -4 169 -11 12 -21 31 -21 42 0 11 41 61 100 119 55 55 100
105 100 112 0 18 -19 51 -52 91 -16 18 -28 36 -28 41 0 19 49 51 94 61 46 10
50 9 84 -17 20 -15 53 -44 74 -65 47 -47 49 -27 5 38 -65 95 -119 112 -207 65z
m-46 -132 c25 -30 32 -67 18 -100 -4 -9 -37 -49 -74 -89 -38 -39 -68 -76 -68
-81 0 -20 -26 -7 -42 22 -25 42 -22 81 8 143 30 61 94 136 117 136 8 0 27 -14
41 -31z"/>
<path d="M4720 8022 c19 -8 48 -17 65 -20 42 -5 65 -20 65 -41 0 -29 -28 -88
-48 -103 -10 -7 -22 -19 -26 -26 -4 -7 13 2 38 20 58 40 78 93 52 132 -17 27
-97 57 -150 55 l-31 -1 35 -16z"/>
<path d="M3880 7998 c-240 -113 -224 -103 -244 -152 -33 -81 -159 -195 -236
-214 -72 -18 -149 -32 -178 -32 -17 -1 -43 -15 -71 -40 -46 -42 -47 -49 -3
-26 15 7 106 30 202 50 190 40 269 62 286 80 6 6 19 33 29 59 14 38 44 75 143
173 69 68 123 124 121 123 -2 0 -24 -10 -49 -21z"/>
<path d="M3147 7004 c-16 -13 -39 -24 -53 -24 -13 0 -24 -4 -24 -10 0 -13 1
-13 65 11 30 11 55 24 55 29 0 19 -17 17 -43 -6z"/>
<path d="M2044 8245 c-10 -8 -14 -15 -8 -15 6 0 17 7 24 15 16 19 9 19 -16 0z"/>
</g>
</svg>
